<?xml version="1.0" encoding="UTF-8"?>
<svg version="1.1" xmlns="http://www.w3.org/2000/svg" width="128" height="128">
<path d="M0 0 C0.66 0.99 1.32 1.98 2 3 C2.639375 2.54625 3.27875 2.0925 3.9375 1.625 C13.60963246 -3.50715192 25.98789645 -3.50590896 36.3125 -0.4375 C46.53301266 3.44955668 54.4526968 10.86341368 59.3203125 20.65625 C61.03687055 24.73757684 62 27.51381454 62 32 C62.66 32 63.32 32 64 32 C64.061875 32.94875 64.12375 33.8975 64.1875 34.875 C64.5896875 36.421875 64.5896875 36.421875 65 38 C67.46255685 39.45291273 67.46255685 39.45291273 70 40 C70 41.32 70 42.64 70 44 C70.61488281 44.18175781 71.22976562 44.36351562 71.86328125 44.55078125 C73.07564453 44.92783203 73.07564453 44.92783203 74.3125 45.3125 C75.11300781 45.55613281 75.91351563 45.79976562 76.73828125 46.05078125 C79.15143168 47.06355423 80.37126886 47.97035042 82 50 C83.23703923 53.71111769 83.68187405 57.14896131 83 61 C80.875 63.5 80.875 63.5 78 65 C74.6875 65.25 74.6875 65.25 72 65 C72.0825 66.03125 72.165 67.0625 72.25 68.125 C71.95104261 72.75883949 71.02379152 74.51100979 68 78 C62.43962848 82 62.43962848 82 59 82 C58.731875 82.61875 58.46375 83.2375 58.1875 83.875 C57 86 57 86 54 88 C51.51953125 88.1953125 51.51953125 88.1953125 48.8125 88.125 C47.91144531 88.10695313 47.01039062 88.08890625 46.08203125 88.0703125 C45.39496094 88.04710938 44.70789063 88.02390625 44 88 C44.20625 88.680625 44.4125 89.36125 44.625 90.0625 C45.20817968 94.6307408 44.39281086 98.1179298 41.62109375 101.86328125 C35.26906627 108.74587251 27.91448215 111.52756442 18.66015625 112.11328125 C14.61336954 111.94095113 9.97028318 110.97028318 7 108 C3.27760948 107.75214662 -0.4397932 107.61559162 -4.16796875 107.4765625 C-9.3170483 106.83620806 -12.64414309 105.01689268 -16.75 101.9375 C-19.79602916 97.96073971 -20.6312124 93.96107127 -21 89 C-20.67 88.34 -20.34 87.68 -20 87 C-21.010625 87.226875 -22.02125 87.45375 -23.0625 87.6875 C-28.91225447 88.15176623 -32.34167382 86.36351263 -36.8125 82.6875 C-40.76714177 77.82894011 -41.56198066 73.1817873 -41 67 C-39.3381612 62.53380823 -36.58374159 60.65550682 -32.40625 58.71484375 C-27.99648352 57.40479949 -23.54924849 57.69894679 -19 58 C-18.67 56.35 -18.34 54.7 -18 53 C-16.515 52.505 -16.515 52.505 -15 52 C-15.144375 51.443125 -15.28875 50.88625 -15.4375 50.3125 C-16.71546672 45.05863683 -17.19646963 40.40291471 -17 35 C-18.0725 34.938125 -19.145 34.87625 -20.25 34.8125 C-24 34 -24 34 -26.4375 31.75 C-28.10291199 28.8188749 -28.37775893 27.3053906 -28 24 C-29.093125 23.9175 -30.18625 23.835 -31.3125 23.75 C-35 23 -35 23 -36.9375 21.5 C-38.51920246 17.77834715 -38.74721368 13.977814 -38 10 C-36.02077775 7.38133672 -34.01206506 6.44319885 -30.9375 5.4375 C-28.19631961 4.53398244 -27.09299206 4.09299206 -25 2 C-21.9634834 1.89819259 -18.97893473 2.0698571 -15.9453125 2.22265625 C-12.59980732 1.96974671 -11.4598214 1.18896466 -9 -1 C-5.45512678 -2.48655974 -3.34800279 -1.76210673 0 0 Z " fill="#201F1E" transform="translate(43,14)"/>
<path d="M0 0 C3.62713692 2.74246938 6.83644181 5.73918957 10 9 C10.80630859 9.79277344 10.80630859 9.79277344 11.62890625 10.6015625 C15.38439975 14.61489585 18 20.43574642 18 26 C16.046875 26.68359375 14.09375 27.3671875 12.140625 28.05078125 C9.92386989 28.89781548 9.92386989 28.89781548 8.23828125 30.61328125 C4.44730687 32.9619652 0.05759927 32.03823056 -4.24414062 31.70703125 C-6.61016337 31.55449051 -6.61016337 31.55449051 -10 32 C-11.73085528 34.3933915 -11.73085528 34.3933915 -13 37 C-15.375 37.8203125 -15.375 37.8203125 -18 38.125 C-21.63919329 38.55645964 -21.63919329 38.55645964 -24.78515625 40.28515625 C-27.097285 43.54890069 -26.55966604 47.18646164 -26 51 C-24.76858724 54.55561715 -24.76858724 54.55561715 -22 57 C-18.96596156 58.08097411 -16.216557 58.52697691 -13 59 C-12.505 63.95 -12.505 63.95 -12 69 C-24.48024219 69.52081382 -33.13304668 67.90848433 -43 60 C-49.29979831 54.17161516 -54.73594133 45.37965745 -55.09765625 36.640625 C-55.08605469 35.85171875 -55.07445313 35.0628125 -55.0625 34.25 C-55.05347656 33.45078125 -55.04445313 32.6515625 -55.03515625 31.828125 C-55.02355469 31.22484375 -55.01195313 30.6215625 -55 30 C-54.34 30.33 -53.68 30.66 -53 31 C-47.3803832 31.37464112 -43.878368 31.13609371 -39 28 C-36.87491756 24.81237635 -36.4979837 22.73487777 -36 19 C-32.535 18.505 -32.535 18.505 -29 18 C-28.91868537 16.56344146 -28.86066441 15.1255517 -28.8125 13.6875 C-28.77769531 12.88699219 -28.74289063 12.08648438 -28.70703125 11.26171875 C-28.81574673 8.93679316 -28.81574673 8.93679316 -30.34375 7.25 C-32.48125162 5.63679123 -34.37559 5.35465 -37 5 C-37 3.35 -37 1.7 -37 0 C-25.24675428 -5.47344499 -11.57539203 -6.60695892 0 0 Z " fill="#FDE689" transform="translate(84,19)"/>
<path d="M0 0 C1.2265625 1.72265625 1.2265625 1.72265625 2.625 4.0625 C8.14230684 12.57950765 15.43196521 17.81065507 25 21 C26.51800637 21.12377323 28.04013156 21.20073426 29.5625 21.24609375 C30.44164062 21.27896484 31.32078125 21.31183594 32.2265625 21.34570312 C34.0753958 21.4068969 35.92436236 21.46418934 37.7734375 21.51757812 C38.65257813 21.55173828 39.53171875 21.58589844 40.4375 21.62109375 C41.24058594 21.6461499 42.04367188 21.67120605 42.87109375 21.69702148 C45 22 45 22 48 24 C50.63917716 24.38406884 50.63917716 24.38406884 53.5 24.5 C57.34156538 24.70653577 58.71656676 24.8110445 62 27 C63.9896995 27.39013716 65.99019869 27.73202649 68 28 C68 28.66 68 29.32 68 30 C64.22777911 31.75163456 61.333361 32.22490027 57.1875 32.125 C56.21167969 32.10695312 55.23585938 32.08890625 54.23046875 32.0703125 C53.12638672 32.03550781 53.12638672 32.03550781 52 32 C52.66 32.99 53.32 33.98 54 35 C54.55932973 39.15502085 54.31609664 42.07898495 52.125 45.625 C48.13878398 50.71086182 41.97924847 53.00691718 36 55 C34.21325587 55.16871733 32.41908464 55.26580465 30.625 55.3125 C29.22121094 55.36857422 29.22121094 55.36857422 27.7890625 55.42578125 C25 55 25 55 22.61328125 52.98046875 C18.30637817 49.71649287 13.87582208 50.91518404 8.69140625 51.25 C3.17155866 50.87616905 0.26340738 48.4341381 -3.3125 44.375 C-6.42235106 39.99817258 -6.08525354 37.28571974 -6 32 C-5.34 32 -4.68 32 -4 32 C-4 31.34 -4 30.68 -4 30 C-4.99 30.33 -5.98 30.66 -7 31 C-17.19771863 32.14760651 -17.19771863 32.14760651 -20.828125 29.8359375 C-24.2543982 25.81109849 -25.79351561 21.65187514 -26.4375 16.5 C-26 13 -26 13 -23.8125 10.125 C-19.47687578 6.84919503 -15.50388972 6.87344711 -10.1875 6.9375 C-8.72376953 6.95103516 -8.72376953 6.95103516 -7.23046875 6.96484375 C-6.12638672 6.98224609 -6.12638672 6.98224609 -5 7 C-5 7.66 -5 8.32 -5 9 C-4.34 9 -3.68 9 -3 9 C-3.33 6.36 -3.66 3.72 -4 1 C-2 0 -2 0 0 0 Z " fill="#EDEBE5" transform="translate(31,68)"/>
<path d="M0 0 C0 2.31 0 4.62 0 7 C2.475 7.495 2.475 7.495 5 8 C5 9.98 5 11.96 5 14 C6.051875 13.938125 7.10375 13.87625 8.1875 13.8125 C12.31067478 14.01527909 14.03955632 14.12662819 17 17 C17.84047527 19.99934311 18.23021215 22.8891846 18 26 C16 28 16 28 13.6171875 28.1953125 C12.71226563 28.17210938 11.80734375 28.14890625 10.875 28.125 C9.96492188 28.10695313 9.05484375 28.08890625 8.1171875 28.0703125 C7.41851562 28.04710938 6.71984375 28.02390625 6 28 C6.495 28.99 6.495 28.99 7 30 C7.6985447 37.1018711 7.6985447 37.1018711 4.8125 40.8125 C3.884375 41.534375 2.95625 42.25625 2 43 C1.2575 43.598125 0.515 44.19625 -0.25 44.8125 C-4.08086973 46.4667392 -7.88709492 46.78561108 -12 46 C-12.4640625 45.50371094 -12.928125 45.00742188 -13.40625 44.49609375 C-15.75731958 42.28908481 -17.7132828 42.69932687 -20.875 42.6875 C-27.60529166 42.2719493 -27.60529166 42.2719493 -30.25 39.375 C-32.23990109 35.53733362 -32.4919723 33.26375997 -32 29 C-31.67 28.34 -31.34 27.68 -31 27 C-31.67546875 27.04640625 -32.3509375 27.0928125 -33.046875 27.140625 C-40.23112986 27.43131739 -40.23112986 27.43131739 -43.5625 25.5625 C-45.6680726 21.80908798 -46.44188353 18.30047364 -46 14 C-44.0625 11.4375 -44.0625 11.4375 -41 10 C-38.19227922 9.64179172 -35.85837292 9.76180226 -33 10 C-32.67 10.33 -32.34 10.66 -32 11 C-31.67 9.02 -31.34 7.04 -31 5 C-29.1746875 5.0309375 -29.1746875 5.0309375 -27.3125 5.0625 C-24.68647234 5.08565721 -22.81152915 4.94859886 -20.25 4.25 C-19.5075 4.1675 -18.765 4.085 -18 4 C-15.6875 5.9375 -15.6875 5.9375 -14 8 C-13.9071875 7.13375 -13.9071875 7.13375 -13.8125 6.25 C-11.39299155 -0.45017725 -6.10411182 -0.41383809 0 0 Z " fill="#ECEBE5" transform="translate(105,48)"/>
<path d="M0 0 C0 1.65 0 3.3 0 5 C1.32 5.33 2.64 5.66 4 6 C4 7.32 4 8.64 4 10 C4.928125 10.12375 5.85625 10.2475 6.8125 10.375 C10 11 10 11 13 13 C13.25 16.5625 13.25 16.5625 13 20 C11.03177114 21.96822886 7.65191291 21.66248381 5 22 C5.1546875 23.60875 5.1546875 23.60875 5.3125 25.25 C5 29 5 29 2.625 31.375 C-1.57227884 33.97331547 -4.01923073 34.18111888 -9 34 C-9.495 33.505 -9.495 33.505 -10 33 C-12.54969386 32.79764334 -15.09692964 32.68084754 -17.65234375 32.57421875 C-20 32 -20 32 -21.31640625 29.95703125 C-21.54199219 29.31121094 -21.76757812 28.66539063 -22 28 C-22.66 28 -23.32 28 -24 28 C-24 25.69 -24 23.38 -24 21 C-25.093125 21.103125 -26.18625 21.20625 -27.3125 21.3125 C-31 21 -31 21 -32.9375 18.875 C-34.12543189 15.66059607 -34.37773878 13.39964899 -34 10 C-32 8 -32 8 -30.0546875 7.8046875 C-28.03645833 7.86979167 -26.01822917 7.93489583 -24 8 C-24 8.66 -24 9.32 -24 10 C-23.34 10 -22.68 10 -22 10 C-22 8.02 -22 6.04 -22 4 C-20.86111328 4.05220703 -20.86111328 4.05220703 -19.69921875 4.10546875 C-18.70535156 4.13253906 -17.71148438 4.15960937 -16.6875 4.1875 C-15.70136719 4.22230469 -14.71523438 4.25710937 -13.69921875 4.29296875 C-10.5647945 3.95276351 -9.98992225 3.316713 -8 1 C-5.07175348 0.02391783 -3.04386724 -0.08226668 0 0 Z " fill="#E7E5DE" transform="translate(41,15)"/>
<path d="M0 0 C0.99 0.495 0.99 0.495 2 1 C8.08516056 1.23333287 8.08516056 1.23333287 14 0 C16.56616632 3.84924948 16.55097676 6.4349304 17 11 C16.01 11 15.02 11 14 11 C15.21897323 14.6569197 16.75049851 15.2492456 20.02734375 17.0390625 C22.24701362 18.15947576 22.24701362 18.15947576 25.6875 19.375 C29 21 29 21 30.875 24.0625 C33.26971615 27.37284292 33.93560859 27.54914267 37.75 28.375 C39.85375 28.684375 39.85375 28.684375 42 29 C42.495 33.95 42.495 33.95 43 39 C30.51975781 39.52081382 21.86695332 37.90848433 12 30 C5.70020169 24.17161516 0.26405867 15.37965745 -0.09765625 6.640625 C-0.08605469 5.85171875 -0.07445313 5.0628125 -0.0625 4.25 C-0.05347656 3.45078125 -0.04445313 2.6515625 -0.03515625 1.828125 C-0.02355469 1.22484375 -0.01195313 0.6215625 0 0 Z " fill="#FBD951" transform="translate(29,49)"/>
<path d="M0 0 C2.46800047 1.15173355 4.04783565 2.04783565 6 4 C6.55416667 10.09583333 6.55416667 10.09583333 4.8125 12.9375 C2.43958382 14.32851983 0.70313576 14.21917317 -2 14 C-1.87625 15.3303125 -1.87625 15.3303125 -1.75 16.6875 C-2.05967467 20.79068934 -3.07904641 22.15799111 -6 25 C-10.24824586 27.47814342 -14.21236174 27.23938191 -19 27 C-19.33 26.67 -19.66 26.34 -20 26 C-20.71366836 35.45610575 -17.67444483 43.86015385 -11.703125 51.21875 C-4.54716761 58.70296232 3.16540151 62.30006281 13.375 63.1875 C14.62216797 63.3102832 14.62216797 63.3102832 15.89453125 63.43554688 C17.92868087 63.63428563 19.96422949 63.81861584 22 64 C21.67 63.01 21.34 62.02 21 61 C20.96045766 58.66700175 20.95598268 56.33291811 21 54 C19.948125 54.0825 18.89625 54.165 17.8125 54.25 C13.38945355 53.95996417 12.04421365 53.13119118 9 50 C6.48555701 45.80043908 6.26087341 41.78672455 7 37 C8.87620613 34.49839182 10.23891303 33.38054348 13 32 C15.6723621 31.86584528 18.32250488 31.95681459 21 32 C21.12375 31.38125 21.2475 30.7625 21.375 30.125 C22 28 22 28 24 26 C26.56511279 25.98532544 29.06744258 26.05802167 31.625 26.1875 C37.76040172 26.37895451 41.48465084 25.94592611 46.453125 22.0546875 C48 21 48 21 50.9375 21.0625 C53 22 53 22 54 24 C53.38511719 24.10957031 52.77023438 24.21914063 52.13671875 24.33203125 C51.32847656 24.49058594 50.52023438 24.64914063 49.6875 24.8125 C48.88699219 24.96332031 48.08648437 25.11414063 47.26171875 25.26953125 C44.70960726 26.09378833 43.64683212 26.90725641 42 29 C41.505 30.485 41.505 30.485 41 32 C40.01 31.67 39.02 31.34 38 31 C37.505 30.01 37.505 30.01 37 29 C35.96875 29.185625 34.9375 29.37125 33.875 29.5625 C30.23851558 29.97307082 27.54562991 29.778309 24 29 C24 31.31 24 33.62 24 36 C23.01 35.505 23.01 35.505 22 35 C18.05532129 34.7455046 15.14191336 34.58222682 11.4375 35.9375 C9.33793895 38.94991368 10.00825313 41.31815249 10.54296875 44.84375 C10.99311398 47.16708465 10.99311398 47.16708465 12 50 C15.96 50.33 19.92 50.66 24 51 C23.9175 52.381875 23.835 53.76375 23.75 55.1875 C23.78952016 58.32441289 24.02164087 60.0519381 25.25 63 C29.10206841 65.8015043 32.54425415 65.60623305 37.22265625 65.6640625 C40.43015624 66.05203015 40.90355034 66.70921652 43 69 C45.04100238 69.57017808 45.04100238 69.57017808 47.1875 69.6875 C48.445625 69.790625 49.70375 69.89375 51 70 C50.01 71.98 50.01 71.98 49 74 C49 73.34 49 72.68 49 72 C48.071875 72.04125 47.14375 72.0825 46.1875 72.125 C43 72 43 72 40 70 C37.36082284 69.61593116 37.36082284 69.61593116 34.5 69.5 C30.65843462 69.29346423 29.28343324 69.1889555 26 67 C23.9245952 66.69915872 23.9245952 66.69915872 21.6484375 66.7265625 C20.79636719 66.7059375 19.94429687 66.6853125 19.06640625 66.6640625 C17.29566559 66.63836235 15.52480194 66.61993176 13.75390625 66.609375 C2.26702036 66.29938408 -6.55633012 60.88357337 -14.453125 52.7421875 C-19 47.62121212 -19 47.62121212 -19 44 C-20.98 44.495 -20.98 44.495 -23 45 C-22.67 44.34 -22.34 43.68 -22 43 C-21.34 43 -20.68 43 -20 43 C-20 42.34 -20 41.68 -20 41 C-20.66 41 -21.32 41 -22 41 C-23.59162079 35.42932723 -24.20674944 30.78898419 -24 25 C-22.35 24.34 -20.7 23.68 -19 23 C-18.67 23.33 -18.34 23.66 -18 24 C-13.89449913 24.40250009 -11.36563591 24.15955022 -7.5625 22.5 C-4.85827256 20.34498243 -4.85827256 20.34498243 -4.62890625 17.953125 C-4.58734974 15.48724955 -4.58734974 15.48724955 -5 12 C-2.36 11.67 0.28 11.34 3 11 C3.33380814 7.62563814 3.33380814 7.62563814 3 4 C1.13875077 2.01760473 1.13875077 2.01760473 -1 1 C-0.67 0.67 -0.34 0.34 0 0 Z " fill="#61583F" transform="translate(50,24)"/>
<path d="M0 0 C0.66 0.99 1.32 1.98 2 3 C2.639375 2.54625 3.27875 2.0925 3.9375 1.625 C13.60963246 -3.50715192 25.98789645 -3.50590896 36.3125 -0.4375 C46.53301266 3.44955668 54.4526968 10.86341368 59.3203125 20.65625 C61.03687055 24.73757684 62 27.51381454 62 32 C62.66 32 63.32 32 64 32 C64.061875 32.94875 64.12375 33.8975 64.1875 34.875 C64.5896875 36.421875 64.5896875 36.421875 65 38 C67.46255685 39.45291273 67.46255685 39.45291273 70 40 C69.67 41.65 69.34 43.3 69 45 C70.65 45.66 72.3 46.32 74 47 C74 47.33 74 47.66 74 48 C71.69 48 69.38 48 67 48 C66.505 45.03 66.505 45.03 66 42 C64.02 41.505 64.02 41.505 62 41 C61.896875 39.948125 61.79375 38.89625 61.6875 37.8125 C60.99089976 33.94953503 60.04875904 32.26283847 58 29 C57.4030897 27.40083567 56.82130773 25.79598872 56.25 24.1875 C52.71277418 15.17025388 45.5401633 8.41842855 37.01953125 3.96484375 C26.52158255 -0.26978847 14.41151557 1.3635455 4 5 C4 6.65 4 8.3 4 10 C4.99 10.33 5.98 10.66 7 11 C5.35 11 3.7 11 2 11 C1.8453125 10.0409375 1.8453125 10.0409375 1.6875 9.0625 C1.460625 8.381875 1.23375 7.70125 1 7 C0.01 6.67 -0.98 6.34 -2 6 C-2 4.35 -2 2.7 -2 1 C-3.43931117 1.45261358 -4.87638999 1.91232979 -6.3125 2.375 C-7.11300781 2.63023438 -7.91351563 2.88546875 -8.73828125 3.1484375 C-11.22724528 3.98831811 -11.22724528 3.98831811 -14 6 C-17.70544587 6.19850603 -20.47005387 6.17664871 -24 5 C-24 6.98 -24 8.96 -24 11 C-24.66 11 -25.32 11 -26 11 C-26 10.34 -26 9.68 -26 9 C-27.299375 9.144375 -28.59875 9.28875 -29.9375 9.4375 C-30.66839844 9.51871094 -31.39929688 9.59992187 -32.15234375 9.68359375 C-34.01140229 9.81886614 -34.01140229 9.81886614 -35 11 C-35.28743526 15.21571713 -34.79760213 18.18009548 -33 22 C-30.69 22 -28.38 22 -26 22 C-26 24.31 -26 26.62 -26 29 C-25.34 29 -24.68 29 -24 29 C-23.34 29.99 -22.68 30.98 -22 32 C-19.80545319 32.57993699 -19.80545319 32.57993699 -17.375 32.6875 C-16.55773437 32.75324219 -15.74046875 32.81898437 -14.8984375 32.88671875 C-14.27195312 32.92410156 -13.64546875 32.96148437 -13 33 C-15 35 -15 35 -18.3125 35.375 C-22.64161024 34.9347515 -24.15209034 34.2667199 -27 31 C-27.8125 27.25 -27.8125 27.25 -28 24 C-29.093125 23.9175 -30.18625 23.835 -31.3125 23.75 C-35 23 -35 23 -36.9375 21.5 C-38.51920246 17.77834715 -38.74721368 13.977814 -38 10 C-36.02077775 7.38133672 -34.01206506 6.44319885 -30.9375 5.4375 C-28.19631961 4.53398244 -27.09299206 4.09299206 -25 2 C-21.9634834 1.89819259 -18.97893473 2.0698571 -15.9453125 2.22265625 C-12.59980732 1.96974671 -11.4598214 1.18896466 -9 -1 C-5.45512678 -2.48655974 -3.34800279 -1.76210673 0 0 Z " fill="#5C450F" transform="translate(43,14)"/>
<path d="M0 0 C2.46800047 1.15173355 4.04783565 2.04783565 6 4 C6.55416667 10.09583333 6.55416667 10.09583333 4.8125 12.9375 C2.43958382 14.32851983 0.70313576 14.21917317 -2 14 C-1.87625 15.3303125 -1.87625 15.3303125 -1.75 16.6875 C-2.05967467 20.79068934 -3.07904641 22.15799111 -6 25 C-10.24824586 27.47814342 -14.21236174 27.23938191 -19 27 C-19.33 26.67 -19.66 26.34 -20 26 C-20.71366836 35.45610575 -17.67444483 43.86015385 -11.703125 51.21875 C-4.54716761 58.70296232 3.16540151 62.30006281 13.375 63.1875 C14.62216797 63.3102832 14.62216797 63.3102832 15.89453125 63.43554688 C17.92868087 63.63428563 19.96422949 63.81861584 22 64 C22.495 63.01 22.495 63.01 23 62 C23 62.99 23 63.98 23 65 C23.99 65.495 23.99 65.495 25 66 C4.2002775 66.76173958 4.2002775 66.76173958 -3 62 C-4.03125 61.401875 -5.0625 60.80375 -6.125 60.1875 C-11.28473096 56.26161774 -16.12935759 51.91014613 -19 46 C-19 45.34 -19 44.68 -19 44 C-20.98 44.495 -20.98 44.495 -23 45 C-22.67 44.34 -22.34 43.68 -22 43 C-21.34 43 -20.68 43 -20 43 C-20 42.34 -20 41.68 -20 41 C-20.66 41 -21.32 41 -22 41 C-23.59162079 35.42932723 -24.20674944 30.78898419 -24 25 C-22.35 24.34 -20.7 23.68 -19 23 C-18.67 23.33 -18.34 23.66 -18 24 C-13.89449913 24.40250009 -11.36563591 24.15955022 -7.5625 22.5 C-4.85827256 20.34498243 -4.85827256 20.34498243 -4.62890625 17.953125 C-4.58734974 15.48724955 -4.58734974 15.48724955 -5 12 C-2.36 11.67 0.28 11.34 3 11 C3.33380814 7.62563814 3.33380814 7.62563814 3 4 C1.13875077 2.01760473 1.13875077 2.01760473 -1 1 C-0.67 0.67 -0.34 0.34 0 0 Z " fill="#5D5740" transform="translate(50,24)"/>
<path d="M0 0 C0 0.66 0 1.32 0 2 C-0.99 2.495 -0.99 2.495 -2 3 C-2 5.97 -2 8.94 -2 12 C-2.66 12 -3.32 12 -4 12 C-4 11.34 -4 10.68 -4 10 C-6.60466543 10.30872329 -9.20867691 10.62181723 -11.8125 10.9375 C-12.55048828 11.02451172 -13.28847656 11.11152344 -14.04882812 11.20117188 C-17.16733121 11.58216546 -20.01108122 12.00369374 -23 13 C-24.74364402 18.23093207 -24.53445474 22.38610555 -22.125 27.3125 C-20.88888298 29.64280949 -19.88633845 31.11366155 -18 33 C-15.41935871 33.14497985 -12.95056116 33.18677545 -10.375 33.125 C-9.66859375 33.11597656 -8.9621875 33.10695312 -8.234375 33.09765625 C-6.48943902 33.07407603 -4.74467705 33.03820461 -3 33 C-3 33.66 -3 34.32 -3 35 C-3.66 35 -4.32 35 -5 35 C-4.05407718 41.29785459 -2.97841864 45.96066973 1 51 C-1.3125 50.8125 -1.3125 50.8125 -4 50 C-7.03727006 46.31188635 -7.64545368 42.69773874 -8 38 C-7.67 37.34 -7.34 36.68 -7 36 C-8.5159375 36.3403125 -8.5159375 36.3403125 -10.0625 36.6875 C-15.91225447 37.15176623 -19.34167382 35.36351263 -23.8125 31.6875 C-27.76714177 26.82894011 -28.56198066 22.1817873 -28 16 C-26.3381612 11.53380823 -23.58374159 9.65550682 -19.40625 7.71484375 C-14.99648352 6.40479949 -10.54924849 6.69894679 -6 7 C-5.896875 6.21625 -5.79375 5.4325 -5.6875 4.625 C-4.82572663 1.33459258 -3.53157582 0 0 0 Z " fill="#151513" transform="translate(30,65)"/>
<path d="M0 0 C0.8125 2.625 0.8125 2.625 1 5 C0.34 5 -0.32 5 -1 5 C-1 3.68 -1 2.36 -1 1 C-6.925975 1.91835242 -6.925975 1.91835242 -12.125 4.625 C-15.00603953 6.73776233 -17.53497915 6.25200152 -21 6 C-21.99 5.67 -22.98 5.34 -24 5 C-24 6.98 -24 8.96 -24 11 C-24.66 11 -25.32 11 -26 11 C-26 10.34 -26 9.68 -26 9 C-27.299375 9.144375 -28.59875 9.28875 -29.9375 9.4375 C-30.66839844 9.51871094 -31.39929688 9.59992187 -32.15234375 9.68359375 C-34.01140229 9.81886614 -34.01140229 9.81886614 -35 11 C-35.28743526 15.21571713 -34.79760213 18.18009548 -33 22 C-30.69 22 -28.38 22 -26 22 C-26 24.31 -26 26.62 -26 29 C-25.34 29 -24.68 29 -24 29 C-23.34 29.99 -22.68 30.98 -22 32 C-19.80545319 32.57993699 -19.80545319 32.57993699 -17.375 32.6875 C-16.55773437 32.75324219 -15.74046875 32.81898437 -14.8984375 32.88671875 C-14.27195312 32.92410156 -13.64546875 32.96148437 -13 33 C-15 35 -15 35 -18.3125 35.375 C-22.64161024 34.9347515 -24.15209034 34.2667199 -27 31 C-27.8125 27.25 -27.8125 27.25 -28 24 C-29.093125 23.9175 -30.18625 23.835 -31.3125 23.75 C-35 23 -35 23 -36.9375 21.5 C-38.51920246 17.77834715 -38.74721368 13.977814 -38 10 C-36.02077775 7.38133672 -34.01206506 6.44319885 -30.9375 5.4375 C-28.19631961 4.53398244 -27.09299206 4.09299206 -25 2 C-21.9634834 1.89819259 -18.97893473 2.0698571 -15.9453125 2.22265625 C-12.59980732 1.96974671 -11.4598214 1.18896466 -9 -1 C-5.48923829 -2.47225491 -3.25174151 -1.93346793 0 0 Z " fill="#0F0F0E" transform="translate(43,14)"/>
<path d="M0 0 C0.05399736 1.45792884 0.09279177 2.91642712 0.125 4.375 C0.14820312 5.18710938 0.17140625 5.99921875 0.1953125 6.8359375 C0 9 0 9 -2 11 C-4.5625 11.1875 -4.5625 11.1875 -7 11 C-7.33 10.67 -7.66 10.34 -8 10 C-12.53650708 9.73827844 -15.91405917 9.95702958 -20 12 C-21.43827256 13.21443275 -21.43827256 13.21443275 -21.1875 16.8125 C-21.12971687 20.04835539 -21.0471644 22.36793148 -19 25 C-17.36504293 26.05104383 -15.70116376 27.05988318 -14 28 C-14 28.33 -14 28.66 -14 29 C-11.69 29.33 -9.38 29.66 -7 30 C-7 30.33 -7 30.66 -7 31 C-17.55797933 31.90929966 -17.55797933 31.90929966 -20.83984375 29.83984375 C-24.24458986 25.79347375 -25.79272385 21.65820924 -26.4375 16.5 C-26 13 -26 13 -23.8125 10.125 C-19.47687578 6.84919503 -15.50388972 6.87344711 -10.1875 6.9375 C-8.72376953 6.95103516 -8.72376953 6.95103516 -7.23046875 6.96484375 C-6.12638672 6.98224609 -6.12638672 6.98224609 -5 7 C-5 7.66 -5 8.32 -5 9 C-4.34 9 -3.68 9 -3 9 C-3.33 6.36 -3.66 3.72 -4 1 C-2 0 -2 0 0 0 Z " fill="#D2CEC1" transform="translate(31,68)"/>
<path d="M0 0 C9.92041847 4.75353385 15.18366893 12.22535109 19.1875 22.30078125 C20 25 20 25 20 29 C20.66 29 21.32 29 22 29 C22.061875 29.94875 22.12375 30.8975 22.1875 31.875 C22.455625 32.90625 22.72375 33.9375 23 35 C25.46255685 36.45291273 25.46255685 36.45291273 28 37 C27.67 38.65 27.34 40.3 27 42 C28.65 42.66 30.3 43.32 32 44 C32 44.33 32 44.66 32 45 C29.69 45 27.38 45 25 45 C24.67 43.02 24.34 41.04 24 39 C22.68 38.67 21.36 38.34 20 38 C19.896875 36.948125 19.79375 35.89625 19.6875 34.8125 C18.99089976 30.94953503 18.04875904 29.26283847 16 26 C15.37732488 24.42385359 14.77529116 22.83948525 14.1875 21.25 C11.01588363 13.15815747 6.79534922 7.33920296 0 2 C0 1.34 0 0.68 0 0 Z " fill="#6B4D04" transform="translate(85,17)"/>
<path d="M0 0 C1.11169695 1.66754542 2.21153546 3.34382698 3.26171875 5.05078125 C8.32591019 13.08411507 14.07684707 18.52730472 23 22 C26.15406399 22.68539348 29.28524278 22.99868347 32.5 23.25 C33.32242188 23.32734375 34.14484375 23.4046875 34.9921875 23.484375 C36.99351337 23.67054485 38.99662687 23.83733295 41 24 C41.33 23.34 41.66 22.68 42 22 C42 22.99 42 23.98 42 25 C42.66 25.33 43.32 25.66 44 26 C23.2002775 26.76173958 23.2002775 26.76173958 16 22 C14.96875 21.401875 13.9375 20.80375 12.875 20.1875 C7.71526904 16.26161774 2.87064241 11.91014613 0 6 C0 5.34 0 4.68 0 4 C-1.32 4.33 -2.64 4.66 -4 5 C-3.67 4.34 -3.34 3.68 -3 3 C-2.01 3 -1.02 3 0 3 C0 2.01 0 1.02 0 0 Z " fill="#897230" transform="translate(31,64)"/>
<path d="M0 0 C2.0625 0.9375 2.0625 0.9375 3.0625 2.9375 C2.14017578 3.10185547 2.14017578 3.10185547 1.19921875 3.26953125 C0.39097656 3.42808594 -0.41726562 3.58664063 -1.25 3.75 C-2.45076172 3.97623047 -2.45076172 3.97623047 -3.67578125 4.20703125 C-6.22789274 5.03128833 -7.29066788 5.84475641 -8.9375 7.9375 C-9.2675 8.9275 -9.5975 9.9175 -9.9375 10.9375 C-10.9275 10.6075 -11.9175 10.2775 -12.9375 9.9375 C-13.2675 9.2775 -13.5975 8.6175 -13.9375 7.9375 C-15.484375 8.2159375 -15.484375 8.2159375 -17.0625 8.5 C-20.69898442 8.91057082 -23.39187009 8.715809 -26.9375 7.9375 C-26.9375 10.2475 -26.9375 12.5575 -26.9375 14.9375 C-27.5975 14.6075 -28.2575 14.2775 -28.9375 13.9375 C-30.47418865 13.71282169 -32.01718054 13.52953195 -33.5625 13.375 C-34.37976563 13.29121094 -35.19703125 13.20742188 -36.0390625 13.12109375 C-36.66554688 13.06050781 -37.29203125 12.99992187 -37.9375 12.9375 C-37.9375 12.2775 -37.9375 11.6175 -37.9375 10.9375 C-35.2975 10.9375 -32.6575 10.9375 -29.9375 10.9375 C-29.81375 10.31875 -29.69 9.7 -29.5625 9.0625 C-28.9375 6.9375 -28.9375 6.9375 -26.9375 4.9375 C-24.37238721 4.92282544 -21.87005742 4.99552167 -19.3125 5.125 C-13.17709828 5.31645451 -9.45284916 4.88342611 -4.484375 0.9921875 C-2.9375 -0.0625 -2.9375 -0.0625 0 0 Z " fill="#5A553F" transform="translate(100.9375,45.0625)"/>
<path d="M0 0 C2.64 0 5.28 0 8 0 C8 2.31 8 4.62 8 7 C9.65 7.33 11.3 7.66 13 8 C13 9.98 13 11.96 13 14 C14.5778125 13.9071875 14.5778125 13.9071875 16.1875 13.8125 C20.31067478 14.01527909 22.03955632 14.12662819 25 17 C25.84047527 19.99934311 26.23021215 22.8891846 26 26 C23.41073669 28.58926331 21.97294721 28.37398043 18.375 28.625 C17.37210938 28.69976562 16.36921875 28.77453125 15.3359375 28.8515625 C14.17964844 28.92503906 14.17964844 28.92503906 13 29 C13 28.34 13 27.68 13 27 C16.3 26.34 19.6 25.68 23 25 C23.41746608 22.12635209 23.41746608 22.12635209 23 19 C20.39749558 16.69492466 18.92497495 15.95487927 15.4375 16.125 C12.84651307 17.05509787 11.14343465 18.30003459 9 20 C8.34 20 7.68 20 7 20 C8.2125738 16.27566618 9.50859979 12.62197194 11 9 C9.35 8.67 7.7 8.34 6 8 C6 5.69 6 3.38 6 1 C4.02 1 2.04 1 0 1 C0 0.67 0 0.34 0 0 Z " fill="#D6D3C6" transform="translate(97,48)"/>
<path d="M0 0 C2 1.3125 2 1.3125 4 3 C4 3.99 4 4.98 4 6 C5.89611434 5.85786703 7.79188394 5.71113093 9.6875 5.5625 C10.74324219 5.48128906 11.79898438 5.40007812 12.88671875 5.31640625 C15.65086297 5.03548319 18.28945741 4.59843148 21 4 C23 7 23 7 23 10 C12.77708293 10.42661323 4.63252664 9.84784062 -4 4 C-3.34 3.67 -2.68 3.34 -2 3 C-1.34 3.33 -0.68 3.66 0 4 C0 2.68 0 1.36 0 0 Z " fill="#F8EB77" transform="translate(49,78)"/>
<path d="M0 0 C5.75 0.875 5.75 0.875 8 2 C11.77271598 1.95088772 15.5309417 1.8033002 19.30078125 1.64453125 C23.52013591 2.04998138 25.10280394 2.96831128 28 6 C28 6.66 28 7.32 28 8 C31.96 8 35.92 8 40 8 C36.65493366 10.23004423 35.94892843 10.21348946 32.125 9.8125 C31.28195313 9.73644531 30.43890625 9.66039063 29.5703125 9.58203125 C27 9 27 9 24.64453125 7.48046875 C21.18888733 5.54592068 18.50121042 5.59519542 14.5625 5.5 C9.21892059 5.3705894 5.59410499 4.82714153 1 2 C0.67 1.34 0.34 0.68 0 0 Z " fill="#080808" transform="translate(28,116)"/>
<path d="M0 0 C0 0.66 0 1.32 0 2 C-0.99 2.495 -0.99 2.495 -2 3 C-2 5.97 -2 8.94 -2 12 C-2.66 12 -3.32 12 -4 12 C-4 11.34 -4 10.68 -4 10 C-5.12019531 10.144375 -6.24039062 10.28875 -7.39453125 10.4375 C-8.86717503 10.62509793 -10.33983197 10.81259255 -11.8125 11 C-12.55048828 11.09539062 -13.28847656 11.19078125 -14.04882812 11.2890625 C-17.05430395 11.66984677 -19.96714441 12 -23 12 C-22 9 -22 9 -19.80078125 7.8203125 C-16.7759173 6.93436908 -14.33109166 6.7992508 -11.1875 6.875 C-9.72376953 6.90207031 -9.72376953 6.90207031 -8.23046875 6.9296875 C-7.49441406 6.95289062 -6.75835938 6.97609375 -6 7 C-5.896875 6.21625 -5.79375 5.4325 -5.6875 4.625 C-4.82572663 1.33459258 -3.53157582 0 0 0 Z " fill="#151512" transform="translate(30,65)"/>
<path d="M0 0 C0.8125 2.625 0.8125 2.625 1 5 C0.34 5 -0.32 5 -1 5 C-1 3.68 -1 2.36 -1 1 C-6.925975 1.91835242 -6.925975 1.91835242 -12.125 4.625 C-15.00603953 6.73776233 -17.53497915 6.25200152 -21 6 C-21.99 5.67 -22.98 5.34 -24 5 C-24 6.98 -24 8.96 -24 11 C-24.66 11 -25.32 11 -26 11 C-26 10.34 -26 9.68 -26 9 C-28.31 9 -30.62 9 -33 9 C-33 8.67 -33 8.34 -33 8 C-30.69 8 -28.38 8 -26 8 C-25.95875 7.38125 -25.9175 6.7625 -25.875 6.125 C-25 4 -25 4 -22.3125 2.75 C-19 2 -19 2 -15.875 2.0625 C-12.463936 1.98834643 -11.55771688 1.13143074 -9 -1 C-5.48923829 -2.47225491 -3.25174151 -1.93346793 0 0 Z " fill="#121110" transform="translate(43,14)"/>
<path d="M0 0 C0.33 0.66 0.66 1.32 1 2 C3.22596002 2.84692901 5.48363587 3.46846299 7.7734375 4.12109375 C10.20344364 5.0803067 11.37597698 5.97246206 13 8 C14.24845512 11.74536535 14.47356526 15.08083924 14 19 C12.625 21 12.625 21 11 22 C10.34 22 9.68 22 9 22 C9.09539062 21.32453125 9.19078125 20.6490625 9.2890625 19.953125 C9.45535156 18.61507812 9.45535156 18.61507812 9.625 17.25 C9.74101563 16.36828125 9.85703125 15.4865625 9.9765625 14.578125 C10.00255183 11.71929868 9.62922785 10.33347472 8 8 C7.01 7.67 6.02 7.34 5 7 C5 6.34 5 5.68 5 5 C2.03 4.505 2.03 4.505 -1 4 C-0.67 2.68 -0.34 1.36 0 0 Z " fill="#1A1A18" transform="translate(112,56)"/>
<path d="M0 0 C-1.10635421 3.31906263 -2.71231732 4.57027367 -5.5625 6.375 C-8.52797068 8.34992964 -8.90954101 8.68037824 -9.9375 12.3125 C-9.958125 13.199375 -9.97875 14.08625 -10 15 C-10.33 15 -10.66 15 -11 15 C-11 12.36 -11 9.72 -11 7 C-10.34 7 -9.68 7 -9 7 C-9 6.34 -9 5.68 -9 5 C-11.97 4.505 -11.97 4.505 -15 4 C-11.02108054 -0.81658671 -5.84925005 -0.11469118 0 0 Z " fill="#DAD8CF" transform="translate(36,93)"/>
<path d="M0 0 C2.0343459 1.41519715 2.90410393 2.54982123 3.421875 4.98046875 C3.66273952 6.98176954 3.83532741 8.9909944 4 11 C3.01 11 2.02 11 1 11 C0.67 11.66 0.34 12.32 0 13 C-1.0055761 11.54550599 -2.00430435 10.08627557 -3 8.625 C-3.556875 7.81289063 -4.11375 7.00078125 -4.6875 6.1640625 C-6 4 -6 4 -6 2 C-4.02 1.34 -2.04 0.68 0 0 Z " fill="#FDDC66" transform="translate(42,49)"/>
<path d="M0 0 C0.66 0 1.32 0 2 0 C2.33 0.66 2.66 1.32 3 2 C5.87429019 2.51068323 5.87429019 2.51068323 9.25 2.6875 C10.95929687 2.81705078 10.95929687 2.81705078 12.703125 2.94921875 C15.67587692 2.99500758 18.12885427 2.71778643 21 2 C20.67 3.32 20.34 4.64 20 6 C16.96544659 6.83273791 14.00365721 7.29812537 10.875 7.625 C10.00617187 7.72039062 9.13734375 7.81578125 8.2421875 7.9140625 C6 8 6 8 4 7 C4 6.01 4 5.02 4 4 C3.01 3.67 2.02 3.34 1 3 C0.67 2.01 0.34 1.02 0 0 Z " fill="#FFDE6B" transform="translate(49,77)"/>
<path d="M0 0 C6.47121309 4.79887713 10.04849745 9.55965477 11.75 17.5 C11.87375 18.7375 11.87375 18.7375 12 20 C10.35 20.33 8.7 20.66 7 21 C6.82984375 20.04738281 6.6596875 19.09476563 6.484375 18.11328125 C6.24203125 16.85902344 5.9996875 15.60476562 5.75 14.3125 C5.51796875 13.07113281 5.2859375 11.82976563 5.046875 10.55078125 C3.94895994 6.82688277 2.52018535 4.88988196 0 2 C0 1.34 0 0.68 0 0 Z " fill="#F8CF36" transform="translate(90,25)"/>
<path d="M0 0 C0.99 0.495 0.99 0.495 2 1 C5.04924878 1.23692005 8.09724003 1.3823756 11.15234375 1.5234375 C14.34678456 2.05803528 14.89407614 2.70965908 17 5 C19.04100238 5.57017808 19.04100238 5.57017808 21.1875 5.6875 C23.0746875 5.8421875 23.0746875 5.8421875 25 6 C24.34 7.32 23.68 8.64 23 10 C23 9.34 23 8.68 23 8 C22.071875 8.04125 21.14375 8.0825 20.1875 8.125 C17 8 17 8 14 6 C11.36082284 5.61593116 11.36082284 5.61593116 8.5 5.5 C4.65843462 5.29346423 3.28343324 5.1889555 0 3 C0 2.01 0 1.02 0 0 Z " fill="#535250" transform="translate(76,88)"/>
<path d="M0 0 C0.33 0.99 0.66 1.98 1 3 C2.85978416 4.88455518 2.85978416 4.88455518 5.0625 6.6875 C5.79597656 7.31011719 6.52945313 7.93273438 7.28515625 8.57421875 C7.85105469 9.04472656 8.41695312 9.51523437 9 10 C8.67 10.66 8.34 11.32 8 12 C7.21689453 11.20335937 7.21689453 11.20335937 6.41796875 10.390625 C-3.30969877 1.05478997 -12.77969271 -0.61400563 -26 -1 C-26 -1.33 -26 -1.66 -26 -2 C-7.5216972 -3.7608486 -7.5216972 -3.7608486 0 0 Z " fill="#886813" transform="translate(85,16)"/>
<path d="M0 0 C0.33 0.66 0.66 1.32 1 2 C-1.07984194 7.13027679 -5.1623503 9.69635729 -10 12 C-13.91336855 13.1060926 -17.28388944 12.96093401 -21.3125 12.5625 C-22.38113281 12.46066406 -23.44976562 12.35882813 -24.55078125 12.25390625 C-25.35902344 12.17011719 -26.16726562 12.08632812 -27 12 C-27 11.67 -27 11.34 -27 11 C-26.32195313 10.97421875 -25.64390625 10.9484375 -24.9453125 10.921875 C-16.94685917 10.43443463 -8.86270438 9.16979372 -2.9375 3.3125 C-2.298125 2.549375 -1.65875 1.78625 -1 1 C-0.67 0.67 -0.34 0.34 0 0 Z " fill="#2E2E2D" transform="translate(83,112)"/>
<path d="M0 0 C0.66 0.33 1.32 0.66 2 1 C1.979375 2.299375 1.95875 3.59875 1.9375 4.9375 C1.92995028 9.69382325 2.40112883 14.28388953 3 19 C2.67 18.34 2.34 17.68 2 17 C1.34 17 0.68 17 0 17 C-1.59162079 11.42932723 -2.20674944 6.78898419 -2 1 C-1.34 0.67 -0.68 0.34 0 0 Z " fill="#6D4C05" transform="translate(28,48)"/>
<path d="M0 0 C3.3 0 6.6 0 10 0 C10 0.99 10 1.98 10 3 C8.02 3 6.04 3 4 3 C4 5.31 4 7.62 4 10 C3.01 10 2.02 10 1 10 C0.67 6.7 0.34 3.4 0 0 Z " fill="#2D2C2A" transform="translate(111,76)"/>
<path d="M0 0 C-0.03480469 0.92232422 -0.03480469 0.92232422 -0.0703125 1.86328125 C-0.08835937 2.67152344 -0.10640625 3.47976562 -0.125 4.3125 C-0.15980469 5.51326172 -0.15980469 5.51326172 -0.1953125 6.73828125 C-0.15817322 9.28388576 -0.15817322 9.28388576 2 12 C1.67 12.99 1.34 13.98 1 15 C-1.63829259 13.68085371 -1.98263229 12.76142665 -3 10 C-3.0777346 7.66796188 -3.08967728 5.33160941 -3 3 C-5.31 3 -7.62 3 -10 3 C-10 2.34 -10 1.68 -10 1 C-3.375 0 -3.375 0 0 0 Z " fill="#5C5136" transform="translate(74,75)"/>
<path d="M0 0 C0 0.33 0 0.66 0 1 C-3.3 1.66 -6.6 2.32 -10 3 C-10.27415488 8.61767098 -10.27415488 8.61767098 -9 14 C-8.01 14.33 -7.02 14.66 -6 15 C-6.66 15.66 -7.32 16.32 -8 17 C-11.29248771 14.55718654 -12.39963092 12.4447209 -13.0625 8.5 C-13.29137302 5.02685198 -13.24259672 4.32085372 -11.0625 1.4375 C-7.0439982 -0.44873554 -4.40544297 -0.2986741 0 0 Z " fill="#CECBBE" transform="translate(72,58)"/>
<path d="M0 0 C0 0.66 0 1.32 0 2 C-0.66 2 -1.32 2 -2 2 C-1.05407718 8.29785459 0.02158136 12.96066973 4 18 C1.625 17.6875 1.625 17.6875 -1 17 C-3.35119399 13.47320901 -3.21443452 11.97120515 -3.125 7.8125 C-3.10695313 6.72582031 -3.08890625 5.63914062 -3.0703125 4.51953125 C-3.04710937 3.68808594 -3.02390625 2.85664062 -3 2 C-6.3 2 -9.6 2 -13 2 C-13 1.67 -13 1.34 -13 1 C-11.39602723 0.83147753 -9.7918131 0.66525114 -8.1875 0.5 C-7.29417969 0.4071875 -6.40085937 0.314375 -5.48046875 0.21875 C-3 0 -3 0 0 0 Z " fill="#3C3B39" transform="translate(27,98)"/>
<path d="M0 0 C0.66 0.99 1.32 1.98 2 3 C1.00434492 6.98262031 -0.51676381 8.88894776 -4 11 C-6.75078884 11.91692961 -8.35948913 12.10886083 -11.1875 12.0625 C-13.0746875 12.0315625 -13.0746875 12.0315625 -15 12 C-15.33 10.68 -15.66 9.36 -16 8 C-15.01 8.495 -15.01 8.495 -14 9 C-9.78472341 9.40531506 -7.44501063 9.22250532 -3.625 7.3125 C-0.81588038 5.23766836 -0.81588038 5.23766836 -0.125 2.25 C-0.08375 1.5075 -0.0425 0.765 0 0 Z " fill="#6C6341" transform="translate(46,39)"/>
<path d="M0 0 C1.98 0 3.96 0 6 0 C6 2.31 6 4.62 6 7 C6.66 7 7.32 7 8 7 C8.99 8.485 8.99 8.485 10 10 C12.19454681 10.57993699 12.19454681 10.57993699 14.625 10.6875 C15.44226562 10.75324219 16.25953125 10.81898437 17.1015625 10.88671875 C17.72804688 10.92410156 18.35453125 10.96148437 19 11 C17 13 17 13 13.6875 13.375 C9.3446099 12.93335016 7.77751338 12.36668288 5 9 C4.58291345 6.19803394 4.76188061 3.85743265 5 1 C3.35 1 1.7 1 0 1 C0 0.67 0 0.34 0 0 Z " fill="#181611" transform="translate(11,36)"/>
<path d="M0 0 C3.3 0 6.6 0 10 0 C10 0.33 10 0.66 10 1 C7.36 1 4.72 1 2 1 C2.309375 2.0209375 2.309375 2.0209375 2.625 3.0625 C3.11007083 6.86222147 2.34450038 9.437074 1 13 C0.01 13.66 -0.98 14.32 -2 15 C-1.34 10.05 -0.68 5.1 0 0 Z " fill="#0D0D0D" transform="translate(85,101)"/>
<path d="M0 0 C0 0.66 0 1.32 0 2 C-1.62490954 2.02698189 -3.24994633 2.04638757 -4.875 2.0625 C-5.77992187 2.07410156 -6.68484375 2.08570313 -7.6171875 2.09765625 C-10 2 -10 2 -12 1 C-12 2.98 -12 4.96 -12 7 C-12.99 7 -13.98 7 -15 7 C-14.67 4.69 -14.34 2.38 -14 0 C-11.98177083 0.03255208 -9.96354167 0.06510417 -7.9453125 0.09765625 C-0.86009174 -0.25802752 -0.86009174 -0.25802752 0 0 Z " fill="#C7C4B5" transform="translate(88,53)"/>
<path d="M0 0 C0.33 0 0.66 0 1 0 C1 1.65 1 3.3 1 5 C2.98 4.67 4.96 4.34 7 4 C8 7 8 7 7 10 C9.475 10.99 9.475 10.99 12 12 C12 12.33 12 12.66 12 13 C9.69 13 7.38 13 5 13 C4.67 11.02 4.34 9.04 4 7 C2.68 6.67 1.36 6.34 0 6 C0 4.02 0 2.04 0 0 Z " fill="#4B4A44" transform="translate(105,49)"/>
<path d="M0 0 C1.21816406 0.03480469 1.21816406 0.03480469 2.4609375 0.0703125 C3.68683594 0.09738281 3.68683594 0.09738281 4.9375 0.125 C5.87722656 0.15980469 5.87722656 0.15980469 6.8359375 0.1953125 C7.1659375 1.5153125 7.4959375 2.8353125 7.8359375 4.1953125 C6.3988566 4.24954197 4.96118288 4.28820973 3.5234375 4.3203125 C2.72292969 4.34351562 1.92242187 4.36671875 1.09765625 4.390625 C-1.1640625 4.1953125 -1.1640625 4.1953125 -4.1640625 2.1953125 C-2.1640625 0.1953125 -2.1640625 0.1953125 0 0 Z " fill="#FAF684" transform="translate(64.1640625,83.8046875)"/>
<path d="M0 0 C2.64 0 5.28 0 8 0 C8 2.31 8 4.62 8 7 C9.65 7.33 11.3 7.66 13 8 C13 9.65 13 11.3 13 13 C12.401875 12.360625 11.80375 11.72125 11.1875 11.0625 C9.09189663 8.79689611 9.09189663 8.79689611 6 8 C6 5.69 6 3.38 6 1 C4.02 1 2.04 1 0 1 C0 0.67 0 0.34 0 0 Z " fill="#C8C4B5" transform="translate(97,48)"/>
<path d="M0 0 C1.65 0 3.3 0 5 0 C5 1.65 5 3.3 5 5 C6.32 5.33 7.64 5.66 9 6 C9 7.32 9 8.64 9 10 C10.32 10.33 11.64 10.66 13 11 C10.69 11.33 8.38 11.66 6 12 C6 10.35 6 8.7 6 7 C5.01 6.67 4.02 6.34 3 6 C3 4.35 3 2.7 3 1 C2.01 0.67 1.02 0.34 0 0 Z " fill="#BDBAAD" transform="translate(36,15)"/>
<path d="M0 0 C2.31 0.66 4.62 1.32 7 2 C5.60878255 4.7824349 3.69835788 5.55210065 1 7 C0.34 7 -0.32 7 -1 7 C-1.625 4.625 -1.625 4.625 -2 2 C-1.34 1.34 -0.68 0.68 0 0 Z " fill="#FDEB99" transform="translate(71,46)"/>
<path d="M0 0 C4.74546643 2.51230576 8.42721025 4.88587846 12 9 C12 9.66 12 10.32 12 11 C9 11 9 11 7.5 9.5390625 C7.005 8.90742188 6.51 8.27578125 6 7.625 C4.03385558 5.13659847 2.70640694 3.8042713 0 2 C0 1.34 0 0.68 0 0 Z " fill="#634300" transform="translate(85,17)"/>
<path d="M0 0 C3.3 0 6.6 0 10 0 C5.82091936 2.08954032 5.19589427 2.16552619 1 1 C1 2.98 1 4.96 1 7 C0.34 7 -0.32 7 -1 7 C-1 6.34 -1 5.68 -1 5 C-3.31 5 -5.62 5 -8 5 C-8 4.67 -8 4.34 -8 4 C-5.69 4 -3.38 4 -1 4 C-0.67 2.68 -0.34 1.36 0 0 Z " fill="#6E6B63" transform="translate(18,18)"/>
<path d="M0 0 C0.99 0.495 0.99 0.495 2 1 C3.70363822 1.22622081 5.41328701 1.40888473 7.125 1.5625 C8.03507812 1.64628906 8.94515625 1.73007813 9.8828125 1.81640625 C10.58148438 1.87699219 11.28015625 1.93757813 12 2 C12.33 2.99 12.66 3.98 13 5 C11.39620659 5.05416188 9.79188594 5.09286638 8.1875 5.125 C7.29417969 5.14820312 6.40085937 5.17140625 5.48046875 5.1953125 C3 5 3 5 0 3 C0 2.01 0 1.02 0 0 Z " fill="#7F7E7B" transform="translate(76,88)"/>
<path d="M0 0 C0.33 0 0.66 0 1 0 C1.33 2.64 1.66 5.28 2 8 C1.34 8 0.68 8 0 8 C0 7.34 0 6.68 0 6 C-4.95 6.33 -9.9 6.66 -15 7 C-13 5 -13 5 -9.9609375 4.8046875 C-8.18589844 4.83949219 -8.18589844 4.83949219 -6.375 4.875 C-4.59222656 4.90207031 -4.59222656 4.90207031 -2.7734375 4.9296875 C-1.85820312 4.95289062 -0.94296875 4.97609375 0 5 C0 3.35 0 1.7 0 0 Z " fill="#737168" transform="translate(26,69)"/>
<path d="M0 0 C1.23556641 0.01740234 1.23556641 0.01740234 2.49609375 0.03515625 C3.32238281 0.04417969 4.14867188 0.05320312 5 0.0625 C5.63808594 0.07410156 6.27617188 0.08570312 6.93359375 0.09765625 C7.26359375 1.08765625 7.59359375 2.07765625 7.93359375 3.09765625 C0.50502232 3.38337054 0.50502232 3.38337054 -3.06640625 1.09765625 C-2.06640625 0.09765625 -2.06640625 0.09765625 0 0 Z " fill="#E8E6DE" transform="translate(83.06640625,92.90234375)"/>
<path d="M0 0 C2.64 0 5.28 0 8 0 C6.35 1.65 4.7 3.3 3 5 C2.67 4.34 2.34 3.68 2 3 C1.01 3 0.02 3 -1 3 C-0.67 2.01 -0.34 1.02 0 0 Z " fill="#E0DDD4" transform="translate(72,72)"/>
<path d="M0 0 C0.33 0 0.66 0 1 0 C1 1.98 1 3.96 1 6 C0.34 5.67 -0.32 5.34 -1 5 C-2.53668865 4.77532169 -4.07968054 4.59203195 -5.625 4.4375 C-6.44226563 4.35371094 -7.25953125 4.26992188 -8.1015625 4.18359375 C-8.72804688 4.12300781 -9.35453125 4.06242187 -10 4 C-10 3.34 -10 2.68 -10 2 C-7.03 2 -4.06 2 -1 2 C-0.67 1.34 -0.34 0.68 0 0 Z " fill="#585343" transform="translate(73,54)"/>
<path d="M0 0 C0.99 0.33 1.98 0.66 3 1 C3 1.66 3 2.32 3 3 C5.97 3.33 8.94 3.66 12 4 C12 4.33 12 4.66 12 5 C10.56589632 5.24954005 9.12739928 5.47392642 7.6875 5.6875 C6.88699219 5.81511719 6.08648437 5.94273438 5.26171875 6.07421875 C3 6 3 6 1.20703125 4.70703125 C0 3 0 3 0 0 Z " fill="#746B54" transform="translate(59,71)"/>
<path d="M0 0 C0.99 0 1.98 0 3 0 C3.33 1.98 3.66 3.96 4 6 C4.99 6.33 5.98 6.66 7 7 C7 7.33 7 7.66 7 8 C5.35 8 3.7 8 2 8 C1.34 5.36 0.68 2.72 0 0 Z " fill="#0B0B09" transform="translate(104,46)"/>
<path d="M0 0 C2.1875 -0.3125 2.1875 -0.3125 5 0 C7.8125 2.5 7.8125 2.5 10 5 C7.8125 5.3125 7.8125 5.3125 5 5 C2.1875 2.5 2.1875 2.5 0 0 Z " fill="#292929" transform="translate(46,118)"/>
<path d="M0 0 C0.33 0 0.66 0 1 0 C3.14285714 7.42857143 3.14285714 7.42857143 4 11 C1 10 1 10 -0.25 8.3125 C-1.23749311 5.26772958 -0.7002014 3.08088616 0 0 Z " fill="#595746" transform="translate(72,79)"/>
<path d="M0 0 C0.78375 0.04125 1.5675 0.0825 2.375 0.125 C2.375 1.115 2.375 2.105 2.375 3.125 C1.2303125 3.2796875 1.2303125 3.2796875 0.0625 3.4375 C-2.79559424 4.16864039 -3.78242885 4.89451913 -5.625 7.125 C-4.53409091 0.21590909 -4.53409091 0.21590909 0 0 Z " fill="#726A4D" transform="translate(76.625,49.875)"/>
<path d="M0 0 C0.66 0 1.32 0 2 0 C2 1.65 2 3.3 2 5 C-2.455 5.495 -2.455 5.495 -7 6 C-7 5.34 -7 4.68 -7 4 C-3.535 3.505 -3.535 3.505 0 3 C0 2.01 0 1.02 0 0 Z " fill="#EFD97B" transform="translate(86,45)"/>
<path d="M0 0 C2.3125 0.8125 2.3125 0.8125 3.3125 2.8125 C0.0125 2.8125 -3.2875 2.8125 -6.6875 2.8125 C-2.6875 -0.1875 -2.6875 -0.1875 0 0 Z " fill="#685F38" transform="translate(100.6875,45.1875)"/>
<path d="M0 0 C1.98 0 3.96 0 6 0 C6 2.31 6 4.62 6 7 C6.66 7 7.32 7 8 7 C8.33 7.99 8.66 8.98 9 10 C7.68 9.67 6.36 9.34 5 9 C5 6.36 5 3.72 5 1 C3.35 1 1.7 1 0 1 C0 0.67 0 0.34 0 0 Z " fill="#242423" transform="translate(11,36)"/>
<path d="M0 0 C0.66 0 1.32 0 2 0 C3.38938077 1.96147874 4.7260411 3.96166576 6 6 C3.625 5.6875 3.625 5.6875 1 5 C0.34 4.01 -0.32 3.02 -1 2 C-0.67 1.34 -0.34 0.68 0 0 Z " fill="#343332" transform="translate(25,110)"/>
<path d="M0 0 C0.66 0.99 1.32 1.98 2 3 C0.98819642 6.77126791 0.32378142 7.78414572 -3 10 C-3.66 9.34 -4.32 8.68 -5 8 C-4.360625 7.608125 -3.72125 7.21625 -3.0625 6.8125 C-0.56221181 4.61527704 -0.35049575 3.24208567 0 0 Z " fill="#736C53" transform="translate(46,39)"/>
<path d="M0 0 C2.46800047 1.15173355 4.04783565 2.04783565 6 4 C5.625 7.125 5.625 7.125 5 10 C4.67 10 4.34 10 4 10 C3.9175 9.071875 3.835 8.14375 3.75 7.1875 C3.29742448 3.91490121 3.29742448 3.91490121 0.9375 2.125 C0.298125 1.75375 -0.34125 1.3825 -1 1 C-0.67 0.67 -0.34 0.34 0 0 Z " fill="#66614B" transform="translate(50,24)"/>
<path d="M0 0 C0.33 0 0.66 0 1 0 C1 2.64 1 5.28 1 8 C0.34 8 -0.32 8 -1 8 C-1.66 7.01 -2.32 6.02 -3 5 C-2.67 4.01 -2.34 3.02 -2 2 C-1.34 2.33 -0.68 2.66 0 3 C0 2.01 0 1.02 0 0 Z " fill="#D1CEC0" transform="translate(91,53)"/>
<path d="M0 0 C3.96 0.33 7.92 0.66 12 1 C12 1.33 12 1.66 12 2 C9.03 2 6.06 2 3 2 C2.67 2.66 2.34 3.32 2 4 C1.34 2.68 0.68 1.36 0 0 Z " fill="#3B3B38" transform="translate(82,99)"/>
<path d="M0 0 C2.69082872 0.17635452 5.32851446 0.61835921 8 1 C5.08235 2.9451 3.37462715 3.45276317 0 4 C-0.33 3.01 -0.66 2.02 -1 1 C-0.67 0.67 -0.34 0.34 0 0 Z " fill="#8C8124" transform="translate(50,14)"/>
<path d="M0 0 C5.75 0.75 5.75 0.75 8 3 C6.25 3.75 6.25 3.75 4 4 C1.75 2.0625 1.75 2.0625 0 0 Z " fill="#181817" transform="translate(28,116)"/>
<path d="M0 0 C2 3 2 3 3 6 C2.34 6.66 1.68 7.32 1 8 C0.67 6.68 0.34 5.36 0 4 C-1.32 4.33 -2.64 4.66 -4 5 C-3.67 4.34 -3.34 3.68 -3 3 C-2.01 3 -1.02 3 0 3 C0 2.01 0 1.02 0 0 Z " fill="#86723A" transform="translate(31,64)"/>
</svg>
